<?xml version="1.0" encoding="UTF-8"?>
<svg xmlns="http://www.w3.org/2000/svg" viewBox="0 0 1100 760" font-family="serif">

  <defs>
    <marker id="arr" viewBox="0 0 10 10" refX="9" refY="5"
            markerWidth="8" markerHeight="8" orient="auto">
      <path d="M0,0 L10,5 L0,10 z" fill="#222"/>
    </marker>
    <marker id="arrDash" viewBox="0 0 10 10" refX="9" refY="5"
            markerWidth="8" markerHeight="8" orient="auto">
      <path d="M0,0 L10,5 L0,10 z" fill="#666"/>
    </marker>
    <path id="ctrlOPath"
          d="M 670 440 C 740 490, 860 490, 920 435"/>
    <path id="ctrlOLabelPath"
          d="M 670 425 C 740 475, 860 475, 920 420"/>
  </defs>

  <style>
    .node    { fill: #fff; stroke: #222; stroke-width: 2; }
    .normal  { fill: #f3f3f3; stroke: #000; stroke-width: 3; }
    .mode    { font-style: italic; fill: #000; text-anchor: middle; }
    .sub     { font-size: 12px; fill: #555; text-anchor: middle; font-style: italic; }
    .edge    { fill: none; stroke: #222; stroke-width: 1.5; }
    .edgeDash{ fill: none; stroke: #666; stroke-width: 1.2; stroke-dasharray: 5 4; }
    .kpill rect { fill: #fafafa; stroke: #444; stroke-width: 1; }
    .kpill text { font-family: monospace; font-size: 13px; fill: #000; text-anchor: middle; }
  </style>

  <rect class="normal" x="430" y="340" width="240" height="90" rx="14" ry="14"/>
  <text x="550.0" y="381.0" class="mode" font-size="28">normal</text>
  <text x="550.0" y="403.0" class="sub">resting state</text>
  <rect class="node" x="890" y="350" width="180" height="60" rx="14" ry="14"/>
  <text x="980.0" y="376.0" class="mode" font-size="22">insert</text>
  <text x="980.0" y="398.0" class="sub">typing text</text>
  <rect class="node" x="30" y="350" width="180" height="60" rx="14" ry="14"/>
  <text x="120.0" y="376.0" class="mode" font-size="22">visual</text>
  <text x="120.0" y="398.0" class="sub">char / line / block</text>
  <rect class="node" x="60" y="90" width="280" height="60" rx="14" ry="14"/>
  <text x="200.0" y="116.0" class="mode" font-size="22">operator-pending</text>
  <text x="200.0" y="138.0" class="sub">awaiting a motion</text>
  <rect class="node" x="760" y="90" width="280" height="60" rx="14" ry="14"/>
  <text x="900.0" y="116.0" class="mode" font-size="22">command-line</text>
  <text x="900.0" y="138.0" class="sub">: / ? line</text>
  <rect class="node" x="90" y="610" width="220" height="60" rx="14" ry="14"/>
  <text x="200.0" y="636.0" class="mode" font-size="22">replace</text>
  <text x="200.0" y="658.0" class="sub">overtype</text>
  <rect class="node" x="790" y="610" width="220" height="60" rx="14" ry="14"/>
  <text x="900.0" y="636.0" class="mode" font-size="22">terminal</text>
  <text x="900.0" y="658.0" class="sub">shell inside vim</text>
<line class="edge" x1="676.0" y1="372.9" x2="884.0" y2="368.1" marker-end="url(#arr)"/>
<line class="edge" x1="884.0" y1="392.1" x2="676.0" y2="396.9" marker-end="url(#arr)"/>
<g class="kpill"><rect x="698.0" y="340.0" width="20.0" height="22" rx="5" ry="5"/><text x="708.0" y="355.5">i</text></g><g class="kpill"><rect x="722.0" y="340.0" width="20.0" height="22" rx="5" ry="5"/><text x="732.0" y="355.5">a</text></g><g class="kpill"><rect x="746.0" y="340.0" width="20.0" height="22" rx="5" ry="5"/><text x="756.0" y="355.5">o</text></g><g class="kpill"><rect x="770.0" y="340.0" width="20.0" height="22" rx="5" ry="5"/><text x="780.0" y="355.5">I</text></g><g class="kpill"><rect x="794.0" y="340.0" width="20.0" height="22" rx="5" ry="5"/><text x="804.0" y="355.5">A</text></g><g class="kpill"><rect x="818.0" y="340.0" width="20.0" height="22" rx="5" ry="5"/><text x="828.0" y="355.5">O</text></g><g class="kpill"><rect x="842.0" y="340.0" width="20.0" height="22" rx="5" ry="5"/><text x="852.0" y="355.5">c</text></g>
<g class="kpill"><rect x="763.6" y="408.0" width="32.8" height="22" rx="5" ry="5"/><text x="780.0" y="423.5">Esc</text></g>
<line class="edge" x1="424.0" y1="372.9" x2="216.0" y2="368.1" marker-end="url(#arr)"/>
<line class="edge" x1="216.0" y1="392.1" x2="424.0" y2="396.9" marker-end="url(#arr)"/>
<g class="kpill"><rect x="268.2" y="340.0" width="20.0" height="22" rx="5" ry="5"/><text x="278.2" y="355.5">v</text></g><g class="kpill"><rect x="292.2" y="340.0" width="20.0" height="22" rx="5" ry="5"/><text x="302.2" y="355.5">V</text></g><g class="kpill"><rect x="316.2" y="340.0" width="55.6" height="22" rx="5" ry="5"/><text x="344.0" y="355.5">Ctrl-V</text></g>
<g class="kpill"><rect x="303.6" y="408.0" width="32.8" height="22" rx="5" ry="5"/><text x="320.0" y="423.5">Esc</text></g>
<line class="edge" x1="467.4" y1="342.2" x2="282.0" y2="160.6" marker-end="url(#arr)"/>
<line class="edge" x1="294.6" y1="147.8" x2="480.0" y2="329.4" marker-end="url(#arr)"/>
<g transform="rotate(44.40, 365.6, 260.7)"><g class="kpill"><rect x="295.6" y="249.7" width="20.0" height="22" rx="5" ry="5"/><text x="305.6" y="265.2">d</text></g><g class="kpill"><rect x="319.6" y="249.7" width="20.0" height="22" rx="5" ry="5"/><text x="329.6" y="265.2">c</text></g><g class="kpill"><rect x="343.6" y="249.7" width="20.0" height="22" rx="5" ry="5"/><text x="353.6" y="265.2">y</text></g><g class="kpill"><rect x="367.6" y="249.7" width="20.0" height="22" rx="5" ry="5"/><text x="377.6" y="265.2">&gt;</text></g><g class="kpill"><rect x="391.6" y="249.7" width="20.0" height="22" rx="5" ry="5"/><text x="401.6" y="265.2">&lt;</text></g><g class="kpill"><rect x="415.6" y="249.7" width="20.0" height="22" rx="5" ry="5"/><text x="425.6" y="265.2">=</text></g></g>
<g transform="rotate(44.40, 396.4, 229.3)"><text x="372.5" y="233.3" font-family="serif" font-style="italic" font-size="14" text-anchor="middle" fill="#333">motion</text><text x="401.0" y="233.3" font-family="serif" font-style="italic" font-size="14" text-anchor="middle" fill="#333">/</text><g class="kpill"><rect x="408.5" y="218.3" width="32.8" height="22" rx="5" ry="5"/><text x="424.9" y="233.8">Esc</text></g></g>
<line class="edge" x1="632.6" y1="342.2" x2="818.0" y2="160.6" marker-end="url(#arr)"/>
<line class="edge" x1="805.4" y1="147.8" x2="620.0" y2="329.4" marker-end="url(#arr)"/>
<g transform="rotate(-44.40, 734.4, 260.7)"><g class="kpill"><rect x="700.4" y="249.7" width="20.0" height="22" rx="5" ry="5"/><text x="710.4" y="265.2">:</text></g><g class="kpill"><rect x="724.4" y="249.7" width="20.0" height="22" rx="5" ry="5"/><text x="734.4" y="265.2">/</text></g><g class="kpill"><rect x="748.4" y="249.7" width="20.0" height="22" rx="5" ry="5"/><text x="758.4" y="265.2">?</text></g></g>
<g transform="rotate(-44.40, 703.6, 229.3)"><g class="kpill"><rect x="655.7" y="218.3" width="48.0" height="22" rx="5" ry="5"/><text x="679.7" y="233.8">Enter</text></g><text x="711.2" y="233.3" font-family="serif" font-style="italic" font-size="14" text-anchor="middle" fill="#333">/</text><g class="kpill"><rect x="718.7" y="218.3" width="32.8" height="22" rx="5" ry="5"/><text x="735.1" y="233.8">Esc</text></g></g>
<line class="edge" x1="479.3" y1="440.7" x2="276.4" y2="613.0" marker-end="url(#arr)"/>
<line class="edge" x1="264.7" y1="599.3" x2="467.6" y2="427.0" marker-end="url(#arr)"/>
<g transform="rotate(-40.33, 386.2, 536.8)"><g class="kpill"><rect x="376.2" y="525.8" width="20.0" height="22" rx="5" ry="5"/><text x="386.2" y="541.3">R</text></g></g>
<g transform="rotate(-40.33, 357.8, 503.2)"><g class="kpill"><rect x="341.4" y="492.2" width="32.8" height="22" rx="5" ry="5"/><text x="357.8" y="507.7">Esc</text></g></g>
<line class="edge" x1="620.7" y1="440.7" x2="823.6" y2="613.0" marker-end="url(#arr)"/>
<line class="edge" x1="835.3" y1="599.3" x2="632.4" y2="427.0" marker-end="url(#arr)"/>
<g transform="rotate(40.33, 713.8, 536.8)"><text x="713.8" y="540.8" font-family="monospace" font-size="13" text-anchor="middle" fill="#000">:term</text></g>
<g transform="rotate(40.33, 742.2, 503.2)"><g class="kpill"><rect x="684.6" y="492.2" width="55.6" height="22" rx="5" ry="5"/><text x="712.4" y="507.7">Ctrl-\</text></g><g class="kpill"><rect x="744.2" y="492.2" width="55.6" height="22" rx="5" ry="5"/><text x="772.0" y="507.7">Ctrl-N</text></g></g>
<use href="#ctrlOPath" class="edgeDash" marker-end="url(#arrDash)"/>
<text font-size="12" fill="#555"><textPath href="#ctrlOLabelPath" startOffset="50%" text-anchor="middle"><tspan font-family="monospace" fill="#000">Ctrl-O</tspan><tspan font-family="serif" font-style="italic">  — one command, then back</tspan></textPath></text>
</svg>
