<svg xmlns="http://www.w3.org/2000/svg"
     viewBox="0 0 400 180"
     font-family="'Cascadia Code','Consolas','Courier New',monospace"
     font-size="16" xml:space="preserve"
     data-vimfu-theme="bw">
  <defs><style>
      .bg0 { fill: #ffffff; }
      .fg0 { fill: #000000; }
      .cursor { fill: #000000; opacity: 0.85; }
      .cursor-text { fill: #ffffff; font-weight: bold; }
  </style></defs>
  <g class="backgrounds">
    <rect class="bg0" width="400" height="180"/>
  </g>
  <g class="foreground">
    <text y="14"><tspan class="fg0" x="0 10 20 30 40 50 60" xml:space="preserve">main.py</tspan></text>
    <text y="32"><tspan class="fg0" x="0 10 20 30 40 50 60 70" xml:space="preserve">def f():</tspan></text>
    <text y="50"><tspan class="fg0" x="0 10 20 30 40 50 60 70" xml:space="preserve">    pass</tspan></text>
    <text y="68"><tspan class="fg0" x="0 10 20 30 40 50 60" xml:space="preserve">main.py</tspan></text>
    <text y="86"><tspan class="fg0" x="0 10 20 30 40 50 60 70" xml:space="preserve">def f():</tspan></text>
    <text y="104"><tspan class="fg0" x="0 10 20 30 40 50 60 70 80 90 100 110 120 130 140 150 160 170 180 190 200 210 220" xml:space="preserve">Press ENTER to continue</tspan></text>
  </g>
  <g class="cursors">
    <rect class="cursor" x="0" y="0" width="10" height="18"/>
    <text class="cursor-text" x="0" y="14">m</text>
  </g>
</svg>