<svg xmlns="http://www.w3.org/2000/svg"
     viewBox="0 0 400 180"
     font-family="'Cascadia Code','Consolas','Courier New',monospace"
     font-size="16" xml:space="preserve"
     data-vimfu-theme="color">
  <defs><style>
      .bg0 { fill: #000000; }
      .bg1 { fill: #2e323c; }
      .fg0 { fill: #d4d4d4; }
      .fg1 { fill: #000000; }
      .fg2 { fill: #4d5154; }
      .fg3 { fill: #8f908a; }
      .fg4 { fill: #ae81ff; }
      .fg5 { fill: #b1b1b1; }
      .fg6 { fill: #f8f8f0; }
      .fg7 { fill: #f92672; }
      .cursor { fill: #ff8700; opacity: 0.55; }
      .cursor-text { fill: #000; font-weight: bold; }
  </style></defs>
  <g class="backgrounds">
    <rect class="bg0" width="400" height="180"/>
    <rect class="bg1" x="0" y="18" width="400" height="18"/>
    <rect class="bg1" x="0" y="144" width="400" height="18"/>
  </g>
  <g class="foreground">
    <text y="14"><tspan class="fg0" x="0 10 20 30 40 50 60 70 80 90 100 110 120" xml:space="preserve">practice file</tspan></text>
    <text y="32"><tspan class="fg3" x="0 10 20 30 40 50 60 70 80 90 100 110 120 130 140 150 160 170 180 190 200 210 220 230 240 250 260 270 280 290 300 310 320 330 340 350 360 370 380 390" xml:space="preserve">practice.txt          1,1            All</tspan></text>
    <text y="50"><tspan class="fg2" x="0" xml:space="preserve">:</tspan><tspan class="fg7" x="10" xml:space="preserve">w</tspan></text>
    <text y="68"><tspan class="fg2" x="0" xml:space="preserve">:</tspan><tspan class="fg4" x="10" xml:space="preserve">%</tspan><tspan class="fg7" x="20" xml:space="preserve">s</tspan><tspan class="fg6" x="30" xml:space="preserve">/</tspan><tspan class="fg0" x="40 50 60" xml:space="preserve">foo</tspan><tspan class="fg6" x="70" xml:space="preserve">/</tspan><tspan class="fg0" x="80 90 100" xml:space="preserve">bar</tspan><tspan class="fg6" x="110 120" xml:space="preserve">/g</tspan></text>
    <text y="86"><tspan class="fg2" x="0" xml:space="preserve">:</tspan><tspan class="fg7" x="10 20 30 40" xml:space="preserve">make</tspan></text>
    <text y="104"><tspan class="fg2" x="0" xml:space="preserve">:</tspan></text>
    <text y="122"><tspan class="fg1" x="0" xml:space="preserve">~</tspan></text>
    <text y="140"><tspan class="fg1" x="0" xml:space="preserve">~</tspan></text>
    <text y="158"><tspan class="fg5" x="0 10 20 30 40 50 60 70 80 90 100 110 120 130 140 150 160 170 180 190 200 210 220 230 240 250 260 270 280 290 300 310 320 330 340 350 360 370 380 390" xml:space="preserve">[Command Line]        2,1            All</tspan></text>
    <text y="176"><tspan class="fg0" x="0" xml:space="preserve">:</tspan></text>
  </g>
  <g class="cursors">
    <rect class="cursor" x="10" y="54" width="10" height="18"/>
    <text class="cursor-text" x="10" y="68">%</text>
  </g>
</svg>