<svg xmlns="http://www.w3.org/2000/svg"
     viewBox="0 0 400 200"
     font-family="'Cascadia Code','Consolas','Courier New',monospace"
     font-size="16" xml:space="preserve"
     data-vimfu-theme="color">
  <defs><style>
      .bg0 { fill: #000000; }
      .bg1 { fill: #d4d4d4; }
      .fg0 { fill: #d4d4d4; }
      .fg1 { fill: #000000; }
      .fg2 { fill: #5c5cff; }
      .cursor { fill: #ff8700; opacity: 0.55; }
      .cursor-text { fill: #000; font-weight: bold; }
  </style></defs>
  <g class="backgrounds">
    <rect class="bg0" width="400" height="200"/>
    <rect class="bg1" x="0" y="160" width="400" height="20"/>
  </g>
  <g class="foreground">
    <text y="15"><tspan class="fg0" x="0 10 20 30 40 50 60 70 80" xml:space="preserve">greetings</tspan></text>
    <text y="35"><tspan class="fg0" x="0 10 20 30 40 50 60 70" xml:space="preserve">from vim</tspan></text>
    <text y="55"><tspan class="fg2" x="0" xml:space="preserve">~</tspan></text>
    <text y="75"><tspan class="fg2" x="0" xml:space="preserve">~</tspan></text>
    <text y="95"><tspan class="fg2" x="0" xml:space="preserve">~</tspan></text>
    <text y="115"><tspan class="fg2" x="0" xml:space="preserve">~</tspan></text>
    <text y="135"><tspan class="fg2" x="0" xml:space="preserve">~</tspan></text>
    <text y="155"><tspan class="fg2" x="0" xml:space="preserve">~</tspan></text>
    <text y="175"><tspan class="fg1" x="0 10 20 30 40 50 60 70 80 90 100 110 120 130 140 150 160 170 180 190 200 210 220 230 240 250 260 270" xml:space="preserve">hello.txt [+]            2,9</tspan></text>
  </g>
  <g class="cursors">
    <rect class="cursor" x="80" y="20" width="10" height="20"/>
    <text class="cursor-text" x="80" y="35"> </text>
  </g>
</svg>