<svg xmlns="http://www.w3.org/2000/svg"
     viewBox="0 0 400 400"
     font-family="'Cascadia Code','Consolas','Courier New',monospace"
     font-size="16" xml:space="preserve">
  <defs><style>
      /* Fallback for standalone .svg viewing */
      .bg0 { fill: #111; }
      .bg1 { fill: #555; }
      .fg0 { fill: #ccc; }
      .fg1 { fill: #ccc; }
      .fg2 { fill: #ccc; }
      .fg3 { fill: #ccc; }
      .fg4 { fill: #ccc; }
      .fg5 { fill: #ccc; }
      .fg6 { fill: #ccc; }
      .fg7 { fill: #ccc; }
      .cursor { fill: #888; opacity: 0.8; }
      .cursor-text { fill: #222; }
  </style></defs>
  <g class="backgrounds">
    <rect class="bg0" width="400" height="400"/>
    <rect class="bg1" x="0" y="20" width="400" height="20"/>
    <rect class="bg1" x="0" y="40" width="400" height="20"/>
    <rect class="bg1" x="0" y="360" width="400" height="20"/>
  </g>
  <g class="foreground">
    <text class="fg0" x="0 10 20 30 40 50 60" y="15">speed 5</text>
    <text class="fg1" x="0 10 20 30 40 50 60" y="35">range 5</text>
    <text class="fg1" x="10 20 30 40 50 60" y="55">rmor 5</text>
    <text class="fg4" x="0 10 20" y="95">def</text>
    <text class="fg6" x="40 50 60 70" y="95">cast</text>
    <text class="fg7" x="80" y="95">(</text>
    <text class="fg3" x="90 100 110 120" y="95">name</text>
    <text class="fg7" x="130" y="95">)</text>
    <text class="fg0" x="140" y="95">:</text>
    <text class="fg6" x="40 50 60 70 80" y="115">print</text>
    <text class="fg7" x="90" y="115">(</text>
    <text class="fg0" x="100" y="115">f</text>
    <text class="fg5" x="110 120 130 140 150 160 170 180 190 200 210 220 230 240 250 260 270" y="115">"casting {name}")</text>
    <text class="fg6" x="40 50 60 70 80" y="135">print</text>
    <text class="fg7" x="90" y="135">(</text>
    <text class="fg0" x="100" y="135">f</text>
    <text class="fg5" x="110 120 130 140 150 160 170 180 190 200 210" y="135">"it hits!")</text>
    <text class="fg6" x="40 50 60 70 80" y="155">print</text>
    <text class="fg7" x="90" y="155">(</text>
    <text class="fg0" x="100" y="155">f</text>
    <text class="fg5" x="110 120 130 140 150 160 170 180 190 200 210" y="155">"nice one")</text>
    <text class="fg2" x="0" y="175">~</text>
    <text class="fg2" x="0" y="195">~</text>
    <text class="fg2" x="0" y="215">~</text>
    <text class="fg2" x="0" y="235">~</text>
    <text class="fg2" x="0" y="255">~</text>
    <text class="fg2" x="0" y="275">~</text>
    <text class="fg2" x="0" y="295">~</text>
    <text class="fg2" x="0" y="315">~</text>
    <text class="fg2" x="0" y="335">~</text>
    <text class="fg2" x="0" y="355">~</text>
    <text class="fg1" x="0 10 20 30 40 50 60 70 80 90 100 110 120 130 140 150 160 170 180 190 200 210 220 230 240 250 260 270 280 290 300 310 320 330 340 350 360 370 380 390" y="375">spells.py [+]         1,1            All</text>
  </g>
  <g class="cursors">
    <rect class="cursor" x="0" y="40" width="10" height="20"/>
    <text class="cursor-text" x="0" y="55">a</text>
  </g>
</svg>