<?xml version="1.0" encoding="UTF-8"?>
<svg xmlns="http://www.w3.org/2000/svg" viewBox="0 0 1100 760" font-family="serif">

  <defs>
    <marker id="arr" viewBox="0 0 10 10" refX="9" refY="5"
            markerWidth="8" markerHeight="8" orient="auto">
      <path d="M0,0 L10,5 L0,10 z" fill="#222"/>
    </marker>
    <marker id="arrDash" viewBox="0 0 10 10" refX="9" refY="5"
            markerWidth="8" markerHeight="8" orient="auto">
      <path d="M0,0 L10,5 L0,10 z" fill="#666"/>
    </marker>
    <marker id="arrDashStart" viewBox="0 0 10 10" refX="1" refY="5"
            markerWidth="8" markerHeight="8" orient="auto">
      <path d="M10,0 L0,5 L10,10 z" fill="#666"/>
    </marker>
    <path id="ctrlOPath"
          d="M 670 440 C 740 490, 860 490, 920 435"/>
    <path id="ctrlOLabelPath"
          d="M 670 425 C 740 475, 860 475, 920 420"/>
  </defs>

  <rect x="0" y="0" width="1100" height="760" fill="#fff"/>

  <style>
    .node    { fill: #fff; stroke: #222; stroke-width: 2; }
    .normal  { fill: #f3f3f3; stroke: #000; stroke-width: 3; }
    .mode    { font-style: italic; fill: #000; text-anchor: middle; }
    .sub     { font-size: 12px; fill: #555; text-anchor: middle; font-style: italic; }
    .edge    { fill: none; stroke: #222; stroke-width: 1.5; }
    .edgeDash{ fill: none; stroke: #666; stroke-width: 1.2; stroke-dasharray: 5 4; }
    .kpill rect { fill: #fafafa; stroke: #444; stroke-width: 1; }
    .kpill text { font-family: monospace; font-size: 13px; fill: #000; text-anchor: middle; }
  </style>

  <rect class="normal" x="430" y="340" width="240" height="90" rx="14" ry="14"/>
  <text x="550.0" y="381.0" class="mode" font-size="28">normal</text>
  <text x="550.0" y="403.0" class="sub">resting state</text>
  <rect class="node" x="890" y="350" width="180" height="60" rx="14" ry="14"/>
  <text x="980.0" y="376.0" class="mode" font-size="22">insert</text>
  <text x="980.0" y="398.0" class="sub">typing text</text>
  <rect class="node" x="30" y="350" width="180" height="60" rx="14" ry="14"/>
  <text x="120.0" y="376.0" class="mode" font-size="22">visual</text>
  <text x="120.0" y="398.0" class="sub">char / line / block</text>
  <rect class="node" x="60" y="90" width="280" height="60" rx="14" ry="14"/>
  <text x="200.0" y="116.0" class="mode" font-size="22">operator-pending</text>
  <text x="200.0" y="138.0" class="sub">awaiting a motion</text>
  <rect class="node" x="760" y="90" width="280" height="60" rx="14" ry="14"/>
  <text x="900.0" y="116.0" class="mode" font-size="22">command-line</text>
  <text x="900.0" y="138.0" class="sub">: / ? line</text>
  <rect class="node" x="90" y="610" width="220" height="60" rx="14" ry="14"/>
  <text x="200.0" y="636.0" class="mode" font-size="22">replace</text>
  <text x="200.0" y="658.0" class="sub">overtype</text>
  <rect class="node" x="790" y="610" width="220" height="60" rx="14" ry="14"/>
  <text x="900.0" y="636.0" class="mode" font-size="22">terminal</text>
  <text x="900.0" y="658.0" class="sub">shell inside vim</text>
<line class="edge" x1="676.0" y1="372.9" x2="884.0" y2="368.1" marker-end="url(#arr)"/>
<line class="edge" x1="884.0" y1="392.1" x2="676.0" y2="396.9" marker-end="url(#arr)"/>
<g class="kpill"><rect x="698.0" y="340.0" width="20.0" height="22" rx="5" ry="5"/><text x="708.0" y="355.5">i</text></g><g class="kpill"><rect x="722.0" y="340.0" width="20.0" height="22" rx="5" ry="5"/><text x="732.0" y="355.5">a</text></g><g class="kpill"><rect x="746.0" y="340.0" width="20.0" height="22" rx="5" ry="5"/><text x="756.0" y="355.5">o</text></g><g class="kpill"><rect x="770.0" y="340.0" width="20.0" height="22" rx="5" ry="5"/><text x="780.0" y="355.5">I</text></g><g class="kpill"><rect x="794.0" y="340.0" width="20.0" height="22" rx="5" ry="5"/><text x="804.0" y="355.5">A</text></g><g class="kpill"><rect x="818.0" y="340.0" width="20.0" height="22" rx="5" ry="5"/><text x="828.0" y="355.5">O</text></g><g class="kpill"><rect x="842.0" y="340.0" width="20.0" height="22" rx="5" ry="5"/><text x="852.0" y="355.5">c</text></g>
<g class="kpill"><rect x="763.6" y="408.0" width="32.8" height="22" rx="5" ry="5"/><text x="780.0" y="423.5">Esc</text></g>
<line class="edge" x1="424.0" y1="372.9" x2="216.0" y2="368.1" marker-end="url(#arr)"/>
<line class="edge" x1="216.0" y1="392.1" x2="424.0" y2="396.9" marker-end="url(#arr)"/>
<g class="kpill"><rect x="268.2" y="340.0" width="20.0" height="22" rx="5" ry="5"/><text x="278.2" y="355.5">v</text></g><g class="kpill"><rect x="292.2" y="340.0" width="20.0" height="22" rx="5" ry="5"/><text x="302.2" y="355.5">V</text></g><g class="kpill"><rect x="316.2" y="340.0" width="55.6" height="22" rx="5" ry="5"/><text x="344.0" y="355.5">Ctrl-V</text></g>
<g class="kpill"><rect x="303.6" y="408.0" width="32.8" height="22" rx="5" ry="5"/><text x="320.0" y="423.5">Esc</text></g>
<line class="edge" x1="474.3" y1="323.8" x2="300.3" y2="153.4" marker-end="url(#arr)"/>
<line class="edge" x1="287.7" y1="166.2" x2="461.7" y2="336.6" marker-end="url(#arr)"/>
<g transform="rotate(44.40, 404.8, 220.7)"><g class="kpill"><rect x="334.8" y="209.7" width="20.0" height="22" rx="5" ry="5"/><text x="344.8" y="225.2">d</text></g><g class="kpill"><rect x="358.8" y="209.7" width="20.0" height="22" rx="5" ry="5"/><text x="368.8" y="225.2">c</text></g><g class="kpill"><rect x="382.8" y="209.7" width="20.0" height="22" rx="5" ry="5"/><text x="392.8" y="225.2">y</text></g><g class="kpill"><rect x="406.8" y="209.7" width="20.0" height="22" rx="5" ry="5"/><text x="416.8" y="225.2">&gt;</text></g><g class="kpill"><rect x="430.8" y="209.7" width="20.0" height="22" rx="5" ry="5"/><text x="440.8" y="225.2">&lt;</text></g><g class="kpill"><rect x="454.8" y="209.7" width="20.0" height="22" rx="5" ry="5"/><text x="464.8" y="225.2">=</text></g></g>
<g transform="rotate(44.40, 357.2, 269.3)"><text x="333.3" y="273.3" font-family="serif" font-style="italic" font-size="14" text-anchor="middle" fill="#333">motion</text><text x="361.8" y="273.3" font-family="serif" font-style="italic" font-size="14" text-anchor="middle" fill="#333">/</text><g class="kpill"><rect x="369.3" y="258.3" width="32.8" height="22" rx="5" ry="5"/><text x="385.7" y="273.8">Esc</text></g></g>
<line class="edge" x1="625.7" y1="323.8" x2="799.7" y2="153.4" marker-end="url(#arr)"/>
<line class="edge" x1="812.3" y1="166.2" x2="638.3" y2="336.6" marker-end="url(#arr)"/>
<g transform="rotate(-44.40, 695.2, 220.7)"><g class="kpill"><rect x="661.2" y="209.7" width="20.0" height="22" rx="5" ry="5"/><text x="671.2" y="225.2">:</text></g><g class="kpill"><rect x="685.2" y="209.7" width="20.0" height="22" rx="5" ry="5"/><text x="695.2" y="225.2">/</text></g><g class="kpill"><rect x="709.2" y="209.7" width="20.0" height="22" rx="5" ry="5"/><text x="719.2" y="225.2">?</text></g></g>
<g transform="rotate(-44.40, 742.8, 269.3)"><g class="kpill"><rect x="694.9" y="258.3" width="48.0" height="22" rx="5" ry="5"/><text x="718.9" y="273.8">Enter</text></g><text x="750.4" y="273.3" font-family="serif" font-style="italic" font-size="14" text-anchor="middle" fill="#333">/</text><g class="kpill"><rect x="757.9" y="258.3" width="32.8" height="22" rx="5" ry="5"/><text x="774.3" y="273.8">Esc</text></g></g>
<line class="edge" x1="461.5" y1="432.2" x2="270.8" y2="594.1" marker-end="url(#arr)"/>
<line class="edge" x1="282.5" y1="607.8" x2="473.2" y2="445.9" marker-end="url(#arr)"/>
<g transform="rotate(-40.33, 350.0, 494.1)"><g class="kpill"><rect x="340.0" y="483.1" width="20.0" height="22" rx="5" ry="5"/><text x="350.0" y="498.6">R</text></g></g>
<g transform="rotate(-40.33, 394.0, 545.9)"><g class="kpill"><rect x="377.6" y="534.9" width="32.8" height="22" rx="5" ry="5"/><text x="394.0" y="550.4">Esc</text></g></g>
<line class="edge" x1="638.5" y1="432.2" x2="829.2" y2="594.1" marker-end="url(#arr)"/>
<line class="edge" x1="817.5" y1="607.8" x2="626.8" y2="445.9" marker-end="url(#arr)"/>
<g transform="rotate(40.33, 750.0, 494.1)"><text x="750.0" y="498.1" font-family="monospace" font-size="13" text-anchor="middle" fill="#000">:term</text></g>
<g transform="rotate(40.33, 706.0, 545.9)"><g class="kpill"><rect x="648.4" y="534.9" width="55.6" height="22" rx="5" ry="5"/><text x="676.2" y="550.4">Ctrl-\</text></g><g class="kpill"><rect x="708.0" y="534.9" width="55.6" height="22" rx="5" ry="5"/><text x="735.8" y="550.4">Ctrl-N</text></g></g>
<use href="#ctrlOPath" class="edgeDash" marker-start="url(#arrDashStart)" marker-end="url(#arrDash)"/>
<text font-size="12" fill="#555"><textPath href="#ctrlOLabelPath" startOffset="50%" text-anchor="middle"><tspan font-family="monospace" fill="#000">Ctrl-O</tspan><tspan font-family="serif" font-style="italic">  — one command, then back</tspan></textPath></text>
</svg>
