<?xml version="1.0" encoding="UTF-8"?>
<svg xmlns="http://www.w3.org/2000/svg" viewBox="0 0 1100 760" font-family="serif">

  <defs>
    <marker id="arr" viewBox="0 0 10 10" refX="9" refY="5"
            markerWidth="8" markerHeight="8" orient="auto">
      <path d="M0,0 L10,5 L0,10 z" fill="#222"/>
    </marker>
    <marker id="arrDash" viewBox="0 0 10 10" refX="9" refY="5"
            markerWidth="8" markerHeight="8" orient="auto">
      <path d="M0,0 L10,5 L0,10 z" fill="#666"/>
    </marker>
    <path id="ctrlOPath"
          d="M 670 445 C 740 530, 850 530, 915 415"/>
  </defs>

  <style>
    .node    { fill: #fff; stroke: #222; stroke-width: 2; }
    .normal  { fill: #f3f3f3; stroke: #000; stroke-width: 3; }
    .mode    { font-style: italic; fill: #000; text-anchor: middle; }
    .sub     { font-size: 12px; fill: #555; text-anchor: middle; font-style: italic; }
    .edge    { fill: none; stroke: #222; stroke-width: 1.5; }
    .edgeDash{ fill: none; stroke: #666; stroke-width: 1.2; stroke-dasharray: 5 4; }
    .kpill rect { fill: #fafafa; stroke: #444; stroke-width: 1; }
    .kpill text { font-family: monospace; font-size: 13px; fill: #000; text-anchor: middle; }
  </style>

  <rect class="normal" x="430" y="340" width="240" height="90" rx="14" ry="14"/>
  <text x="550.0" y="381.0" class="mode" font-size="28">normal</text>
  <text x="550.0" y="403.0" class="sub">resting state</text>
  <rect class="node" x="890" y="350" width="180" height="60" rx="14" ry="14"/>
  <text x="980.0" y="376.0" class="mode" font-size="22">insert</text>
  <text x="980.0" y="398.0" class="sub">typing text</text>
  <rect class="node" x="30" y="350" width="180" height="60" rx="14" ry="14"/>
  <text x="120.0" y="376.0" class="mode" font-size="22">visual</text>
  <text x="120.0" y="398.0" class="sub">char / line / block</text>
  <rect class="node" x="60" y="90" width="280" height="60" rx="14" ry="14"/>
  <text x="200.0" y="116.0" class="mode" font-size="22">operator-pending</text>
  <text x="200.0" y="138.0" class="sub">awaiting a motion</text>
  <rect class="node" x="760" y="90" width="280" height="60" rx="14" ry="14"/>
  <text x="900.0" y="116.0" class="mode" font-size="22">command-line</text>
  <text x="900.0" y="138.0" class="sub">: / ? line</text>
  <rect class="node" x="90" y="610" width="220" height="60" rx="14" ry="14"/>
  <text x="200.0" y="636.0" class="mode" font-size="22">replace</text>
  <text x="200.0" y="658.0" class="sub">overtype</text>
  <rect class="node" x="790" y="610" width="220" height="60" rx="14" ry="14"/>
  <text x="900.0" y="636.0" class="mode" font-size="22">terminal</text>
  <text x="900.0" y="658.0" class="sub">shell inside vim</text>
<line class="edge" x1="674.0" y1="372.9" x2="886.0" y2="368.1" marker-end="url(#arr)"/>
<g class="kpill"><rect x="698.0" y="342.0" width="20.0" height="22" rx="5" ry="5"/><text x="708.0" y="357.5">i</text></g><g class="kpill"><rect x="722.0" y="342.0" width="20.0" height="22" rx="5" ry="5"/><text x="732.0" y="357.5">a</text></g><g class="kpill"><rect x="746.0" y="342.0" width="20.0" height="22" rx="5" ry="5"/><text x="756.0" y="357.5">o</text></g><g class="kpill"><rect x="770.0" y="342.0" width="20.0" height="22" rx="5" ry="5"/><text x="780.0" y="357.5">I</text></g><g class="kpill"><rect x="794.0" y="342.0" width="20.0" height="22" rx="5" ry="5"/><text x="804.0" y="357.5">A</text></g><g class="kpill"><rect x="818.0" y="342.0" width="20.0" height="22" rx="5" ry="5"/><text x="828.0" y="357.5">O</text></g><g class="kpill"><rect x="842.0" y="342.0" width="20.0" height="22" rx="5" ry="5"/><text x="852.0" y="357.5">c</text></g>
<line class="edge" x1="886.0" y1="392.1" x2="674.0" y2="396.9" marker-end="url(#arr)"/>
<g class="kpill"><rect x="764.8" y="406.0" width="30.5" height="22" rx="5" ry="5"/><text x="780.0" y="421.5">Esc</text></g>
<line class="edge" x1="426.0" y1="372.9" x2="214.0" y2="368.1" marker-end="url(#arr)"/>
<g class="kpill"><rect x="269.5" y="342.0" width="20.0" height="22" rx="5" ry="5"/><text x="279.5" y="357.5">v</text></g><g class="kpill"><rect x="293.5" y="342.0" width="20.0" height="22" rx="5" ry="5"/><text x="303.5" y="357.5">V</text></g><g class="kpill"><rect x="317.5" y="342.0" width="53.0" height="22" rx="5" ry="5"/><text x="344.0" y="357.5">Ctrl-V</text></g>
<line class="edge" x1="214.0" y1="392.1" x2="426.0" y2="396.9" marker-end="url(#arr)"/>
<g class="kpill"><rect x="304.8" y="406.0" width="30.5" height="22" rx="5" ry="5"/><text x="320.0" y="421.5">Esc</text></g>
<line class="edge" x1="451.3" y1="335.3" x2="308.7" y2="154.7" marker-end="url(#arr)"/>
<line class="edge" x1="299.0" y1="154.5" x2="461.0" y2="335.5" marker-end="url(#arr)"/>
<g class="kpill"><rect x="95.0" y="189.0" width="20.0" height="22" rx="5" ry="5"/><text x="105.0" y="204.5">d</text></g><g class="kpill"><rect x="119.0" y="189.0" width="20.0" height="22" rx="5" ry="5"/><text x="129.0" y="204.5">c</text></g><g class="kpill"><rect x="143.0" y="189.0" width="20.0" height="22" rx="5" ry="5"/><text x="153.0" y="204.5">y</text></g><g class="kpill"><rect x="167.0" y="189.0" width="20.0" height="22" rx="5" ry="5"/><text x="177.0" y="204.5">&gt;</text></g><g class="kpill"><rect x="191.0" y="189.0" width="20.0" height="22" rx="5" ry="5"/><text x="201.0" y="204.5">&lt;</text></g><g class="kpill"><rect x="215.0" y="189.0" width="20.0" height="22" rx="5" ry="5"/><text x="225.0" y="204.5">=</text></g>
<text x="150.0" y="268.0" font-family="serif" font-style="italic" font-size="14" text-anchor="end" fill="#333">motion</text>
<text x="157.0" y="268.0" font-family="serif" font-style="normal" font-size="14" text-anchor="middle" fill="#333">/</text>
<g class="kpill"><rect x="174.8" y="252.0" width="30.5" height="22" rx="5" ry="5"/><text x="190.0" y="267.5">Esc</text></g>
<line class="edge" x1="648.7" y1="335.3" x2="791.3" y2="154.7" marker-end="url(#arr)"/>
<line class="edge" x1="801.0" y1="154.5" x2="639.0" y2="335.5" marker-end="url(#arr)"/>
<g class="kpill"><rect x="901.0" y="189.0" width="20.0" height="22" rx="5" ry="5"/><text x="911.0" y="204.5">:</text></g><g class="kpill"><rect x="925.0" y="189.0" width="20.0" height="22" rx="5" ry="5"/><text x="935.0" y="204.5">/</text></g><g class="kpill"><rect x="949.0" y="189.0" width="20.0" height="22" rx="5" ry="5"/><text x="959.0" y="204.5">?</text></g>
<g class="kpill"><rect x="894.2" y="252.0" width="45.5" height="22" rx="5" ry="5"/><text x="917.0" y="267.5">Enter</text></g>
<text x="950.0" y="268.0" font-family="serif" font-style="normal" font-size="14" text-anchor="middle" fill="#333">/</text>
<g class="kpill"><rect x="959.8" y="252.0" width="30.5" height="22" rx="5" ry="5"/><text x="975.0" y="267.5">Esc</text></g>
<line class="edge" x1="450.8" y1="434.2" x2="279.2" y2="605.8" marker-end="url(#arr)"/>
<line class="edge" x1="269.5" y1="606.0" x2="460.5" y2="434.0" marker-end="url(#arr)"/>
<g class="kpill"><rect x="170.0" y="489.0" width="20.0" height="22" rx="5" ry="5"/><text x="180.0" y="504.5">R</text></g>
<g class="kpill"><rect x="209.8" y="549.0" width="30.5" height="22" rx="5" ry="5"/><text x="225.0" y="564.5">Esc</text></g>
<line class="edge" x1="649.2" y1="434.2" x2="820.8" y2="605.8" marker-end="url(#arr)"/>
<line class="edge" x1="830.5" y1="606.0" x2="639.5" y2="434.0" marker-end="url(#arr)"/>
<text x="925.0" y="505.0" font-family="monospace" font-size="13" text-anchor="middle" fill="#000">:term</text>
<g class="kpill"><rect x="858.5" y="549.0" width="53.0" height="22" rx="5" ry="5"/><text x="885.0" y="564.5">Ctrl-\</text></g>
<g class="kpill"><rect x="918.5" y="549.0" width="53.0" height="22" rx="5" ry="5"/><text x="945.0" y="564.5">Ctrl-N</text></g>
<use href="#ctrlOPath" class="edgeDash" marker-end="url(#arrDash)"/>
<text font-size="12" fill="#555"><textPath href="#ctrlOPath" startOffset="50%" text-anchor="middle"><tspan font-family="monospace" fill="#000">Ctrl-O</tspan><tspan font-family="serif" font-style="italic">  — one command, then back</tspan></textPath></text>
</svg>
